HIERARCHY
ROOT hip
{
	OFFSET 0.000000 0.000000 0.000000 
	CHANNELS 6 Xposition Yposition Zposition Xrotation Zrotation Yrotation
	JOINT abdomen
	{
		OFFSET 0.000000 3.402643 0.000000 
		CHANNELS 3 Xrotation Zrotation Yrotation
		JOINT chest
		{
			OFFSET 0.000000 8.438565 -0.680529 
			CHANNELS 3 Xrotation Zrotation Yrotation
			JOINT neck
			{
				OFFSET 0.000000 10.207942 -0.272212 
				CHANNELS 3 Xrotation Zrotation Yrotation
				JOINT head
				{
					OFFSET 0.000000 3.130431 0.000000 
					CHANNELS 3 Xrotation Zrotation Yrotation
					End Site
					{
						OFFSET 0.000000 3.130435 0.000000 
					}
				}
			}
			JOINT lCollar
			{
				OFFSET 3.470700 6.669187 -0.816635 
				CHANNELS 3 Yrotation Zrotation Xrotation
				JOINT lShldr
				{
					OFFSET 3.198488 0.000000 0.000000 
					CHANNELS 3 Zrotation Yrotation Xrotation
					JOINT lForeArm
					{
						OFFSET 10.139888 0.000000 0.000000 
						CHANNELS 3 Yrotation Zrotation Xrotation
						JOINT lHand
						{
							OFFSET 8.370511 0.000000 0.000000 
							CHANNELS 3 Zrotation Yrotation Xrotation
							End Site
							{
								OFFSET 4.083176 0.000000 0.000000 
							}
						}
					}
				}
			}
			JOINT rCollar
			{
				OFFSET -3.470700 6.669187 -0.816635 
				CHANNELS 3 Yrotation Zrotation Xrotation
				JOINT rShldr
				{
					OFFSET -3.198488 0.000000 0.000000 
					CHANNELS 3 Zrotation Yrotation Xrotation
					JOINT rForeArm
					{
						OFFSET -10.139888 0.000000 0.000000 
						CHANNELS 3 Yrotation Zrotation Xrotation
						JOINT rHand
						{
							OFFSET -8.370511 0.000000 0.000000 
							CHANNELS 3 Zrotation Yrotation Xrotation
							End Site
							{
								OFFSET -4.083176 0.000000 0.000000 
							}
						}
					}
				}
			}
		}
	}
	JOINT lThigh
	{
		OFFSET 5.308129 -1.633274 1.361059 
		CHANNELS 3 Xrotation Zrotation Yrotation
		JOINT lShin
		{
			OFFSET -2.041588 -20.007561 0.000000 
			CHANNELS 3 Xrotation Zrotation Yrotation
			JOINT lFoot
			{
				OFFSET 0.000000 -19.190928 -1.224953 
				CHANNELS 3 Xrotation Yrotation Zrotation
				End Site
				{
					OFFSET 0.000000 -2.449906 4.627600 
				}
			}
		}
	}
	JOINT rThigh
	{
		OFFSET -5.308129 -1.633274 1.361059 
		CHANNELS 3 Xrotation Zrotation Yrotation
		JOINT rShin
		{
			OFFSET 2.041588 -20.007561 0.000000 
			CHANNELS 3 Xrotation Zrotation Yrotation
			JOINT rFoot
			{
				OFFSET 0.000000 -19.190928 -1.224953 
				CHANNELS 3 Xrotation Yrotation Zrotation
				End Site
				{
					OFFSET 0.000000 -2.449906 4.627600 
				}
			}
		}
	}
}
MOTION
Frames: 10
Frame Time: 0.033333
18.501591 45.748772 56.866776 -10.261717 4.161117 16.376846 31.501696 -1.660133 2.663239 -20.839844 0.000000 0.000000 9.215577 13.239570 16.901125 -2.520846 -1.255050 0.218350 -4.754609 -0.109183 -0.002653 -67.515060 -12.994980 -11.767676 -93.020744 4.665759 15.357825 -7.222525 -21.169483 24.765947 4.754609 0.109183 -0.002672 71.425064 -1.603127 13.870158 113.609360 37.576183 -13.480601 18.636162 11.684132 3.078954 -0.938020 19.452978 13.703904 16.050001 -4.804883 7.571557 3.644548 5.282582 -12.270525 7.156332 -22.625536 -17.148924 24.151104 7.169859 -7.071012 -9.658769 -7.697510 7.326094 
18.959415 45.741150 56.720566 -9.779845 3.994031 16.099569 31.564938 -1.247709 2.307614 -20.839844 0.000000 0.000000 8.931124 13.048342 17.171778 -2.520846 -1.255050 0.218350 -4.754609 -0.109183 -0.002653 -60.786213 -16.492136 -13.643342 -86.055962 5.078667 14.882622 -2.364344 -21.971737 24.000326 4.754609 0.109183 -0.002672 69.148590 0.867313 14.611414 119.295387 37.057331 -19.195906 16.837767 12.056485 -0.131100 -2.266099 19.032925 12.805600 17.545658 -4.938358 7.517283 3.109473 6.290480 -11.628892 6.354903 -23.091978 -17.506729 24.112110 6.730779 -6.899366 -9.159250 -7.001404 6.772658 
19.325962 45.733536 56.567242 -9.308357 3.854970 15.550406 31.574162 -0.991080 2.307631 -20.839844 0.000000 0.000000 8.515728 12.416406 17.744959 -2.520846 -1.255050 0.218350 -4.754609 -0.109183 -0.002653 -54.423893 -19.171808 -15.264938 -76.790733 4.511875 13.547546 2.084022 -22.284805 22.077307 4.754609 0.109183 -0.002672 67.416389 4.635411 15.767953 124.280754 36.296997 -23.792593 13.269516 12.625210 -2.504893 -3.252420 18.744400 12.531912 18.633289 -5.174320 7.780032 2.672884 6.712683 -11.120379 5.659650 -23.616364 -18.010769 23.876886 6.447191 -6.804586 -8.757447 -6.261158 6.834400 
19.581224 45.725403 56.440319 -9.014025 3.790632 15.072986 31.767517 -0.903781 2.429078 -20.839844 0.000000 0.000000 8.353836 11.517346 18.278013 -2.520846 -1.255050 0.218350 -4.754609 -0.109183 -0.002653 -49.039734 -21.245667 -16.192663 -66.774384 2.988683 12.195713 6.470088 -22.569407 19.352880 4.754609 0.109183 -0.002672 66.622475 9.341908 17.016253 128.166946 35.073299 -27.251131 8.861703 13.323845 -4.714125 -3.788884 18.547390 12.601175 19.306772 -5.358957 8.043819 2.371235 6.709018 -10.844572 4.949281 -24.079365 -18.188284 24.669769 5.979477 -7.306219 -9.872745 -7.223726 7.080419 
19.693218 45.723381 56.341328 -8.838367 3.840706 15.057592 31.955330 -0.951961 2.286026 -20.839844 0.000000 0.000000 9.007835 10.944469 18.798462 -2.520846 -1.255050 0.218350 -4.754609 -0.109183 -0.002653 -45.471058 -22.564777 -16.143391 -58.188683 1.065184 11.937553 10.457601 -22.577217 17.073505 4.754609 0.109183 -0.002672 67.044571 14.280440 18.299019 130.236679 33.802441 -29.151972 4.378479 14.259432 -6.734147 -4.111433 18.269552 12.437964 19.476162 -5.351766 8.157062 2.342086 6.771397 -10.780264 4.500142 -24.381868 -17.945374 26.116961 5.443086 -8.977028 -11.248194 -10.638530 6.748970 
19.639200 45.707649 56.275330 -8.682574 3.919549 15.417624 31.998972 -0.977615 1.976250 -20.839844 0.000000 0.000000 9.787612 10.675074 19.213434 -2.520846 -1.255050 0.218350 -4.754609 -0.109183 -0.002653 -44.500690 -22.896593 -15.360469 -53.140938 -0.356041 12.547529 12.620925 -22.517673 16.046495 4.754609 0.109183 -0.002672 68.145248 18.959049 19.729347 130.634460 33.020123 -29.792133 -0.083604 14.901086 -8.478764 -4.384693 18.199131 12.412018 19.296881 -5.401721 8.096515 2.558527 6.534100 -10.712831 4.410129 -24.816849 -18.102381 27.814707 5.481139 -11.304008 -12.487420 -14.623431 5.898088 
19.427345 45.685814 56.251469 -8.448256 3.979920 15.796155 32.026608 -1.200295 2.130589 -20.839844 0.000000 0.000000 9.904353 10.654020 18.995184 -2.520846 -1.255050 0.218350 -4.754609 -0.109183 -0.002653 -46.475170 -22.668760 -14.218661 -52.421017 -0.695110 13.381421 12.480256 -23.013464 16.824932 4.754609 0.109183 -0.002672 69.435303 22.887794 20.985237 129.541534 32.620499 -29.414917 -4.074173 15.122905 -9.977589 -4.599498 18.308470 12.443980 18.818577 -5.456547 8.033169 3.006253 6.271722 -10.907201 4.685563 -25.358404 -19.067915 28.756845 6.186071 -13.168889 -13.002936 -16.646938 5.613404 
19.093952 45.633011 56.234711 -8.195129 4.117821 16.097084 32.008102 -1.723750 2.752599 -20.839844 0.000000 0.000000 9.703253 10.772168 18.249968 -2.520846 -1.255050 0.218350 -4.754609 -0.109183 -0.002653 -50.546696 -22.018116 -12.956462 -55.299000 -0.255816 14.535318 10.879778 -24.237881 19.355785 4.754609 0.109183 -0.002672 70.996056 25.783194 22.049021 126.945923 32.627357 -28.088202 -7.218040 14.676960 -11.164655 -4.775167 18.360844 12.319490 18.184364 -5.372250 7.965388 3.579476 6.266156 -11.375751 5.223904 -25.830225 -20.382692 28.483454 7.031497 -13.936827 -11.744216 -16.312939 6.534327 
18.620541 45.564980 56.209843 -8.079667 4.312399 16.468758 31.985073 -2.480222 3.556811 -20.839844 0.000000 0.000000 9.758586 10.937551 17.216774 -2.520846 -1.255050 0.218350 -4.754609 -0.109183 -0.002653 -55.246983 -20.829748 -11.510221 -60.325024 0.190426 16.109743 9.024643 -25.772165 22.523760 4.754609 0.109183 -0.002672 72.890862 27.261040 22.788559 123.036255 32.805237 -26.126059 -8.308187 13.486535 -12.192925 -4.726551 18.559799 12.409236 17.258795 -5.295093 7.882115 4.351614 5.952372 -11.700125 6.117189 -25.900558 -21.485113 27.112785 7.765440 -14.168424 -8.623863 -14.875048 8.033322 
18.006145 45.457359 56.193085 -8.110630 4.457104 17.197914 32.084461 -3.119174 4.081098 -20.839844 0.000000 0.000000 10.179654 11.041649 16.270411 -2.520846 -1.255050 0.218350 -4.754609 -0.109183 -0.002653 -59.691559 -19.463511 -10.161601 -65.971603 0.487263 17.366430 6.638043 -27.088745 25.186470 4.754609 0.109183 -0.002672 74.936966 27.648603 23.246153 118.143105 33.026104 -23.927233 -7.433250 11.938033 -13.354253 -4.756164 19.118349 12.755124 16.498903 -5.244169 7.536184 5.138350 5.213743 -11.961843 6.891119 -25.923586 -22.778934 26.754372 8.782742 -14.525889 -6.699439 -13.333900 8.667995 
